HIERARCHY
ROOT teapot2
{
	OFFSET 0.000000 0.000000 0.000000
	CHANNELS 6 Xposition Yposition Zposition Yrotation Xrotation Zrotation
	End Site
	{
		OFFSET 0.000000 0.000000 0.000000
	}
}
MOTION
Frames: 160
Frame Time: 0.008333334
1.337151 3.629362 2.708018 4.820707 0.181783 -0.296173 
1.337720 3.629388 2.708232 4.806848 0.203549 -0.305969 
1.337917 3.629425 2.708163 4.811574 0.211444 -0.300842 
1.337913 3.629371 2.708067 4.801600 0.173541 -0.314880 
1.337659 3.629310 2.708040 4.805483 0.192840 -0.308655 
1.337073 3.629167 2.708126 4.830799 0.128176 -0.256073 
1.336582 3.629251 2.707800 4.793540 0.182045 -0.285370 
1.336038 3.629177 2.707561 4.803885 0.136568 -0.262787 
1.335748 3.629127 2.707292 4.802518 0.155761 -0.251801 
1.335769 3.629224 2.706473 4.782182 0.172248 -0.289337 
1.335990 3.629203 2.705709 4.783800 0.159411 -0.284607 
1.336116 3.629187 2.705113 4.773713 0.161599 -0.276764 
1.336431 3.629005 2.704448 4.781389 0.165536 -0.283997 
1.336384 3.628815 2.703944 4.804398 0.134445 -0.253998 
1.336204 3.628976 2.703230 4.803910 0.120141 -0.281860 
1.335770 3.629011 2.703134 4.788227 0.155091 -0.295654 
1.335379 3.628943 2.702955 4.784503 0.165698 -0.286499 
1.335005 3.628861 2.702673 4.769570 0.126770 -0.264008 
1.334612 3.629097 2.702487 4.771711 0.167889 -0.284607 
1.334799 3.629016 2.702758 4.774738 0.148719 -0.277130 
1.335054 3.629018 2.702981 4.783437 0.150844 -0.271393 
1.335256 3.628946 2.703014 4.774778 0.145178 -0.269745 
1.335527 3.628929 2.703116 4.779651 0.137335 -0.274414 
1.335630 3.628989 2.703434 4.800530 0.151777 -0.292725 
1.335845 3.628955 2.703895 4.774269 0.168798 -0.279816 
1.335769 3.629038 2.704113 4.774332 0.172350 -0.273438 
1.335365 3.628964 2.704261 4.791803 0.136014 -0.242401 
1.335146 3.628953 2.704361 4.790556 0.142828 -0.234070 
1.335225 3.629130 2.704399 4.776021 0.168146 -0.263733 
1.335090 3.629164 2.704446 4.766255 0.161449 -0.265289 
1.335359 3.628859 2.704314 4.788713 0.128813 -0.232758 
1.335318 3.628841 2.704316 4.788768 0.150137 -0.244965 
1.335478 3.628946 2.704290 4.788042 0.121333 -0.261871 
1.335679 3.629061 2.704011 4.774307 0.169867 -0.290497 
1.335527 3.628964 2.703604 4.817410 0.126336 -0.268250 
1.335592 3.629068 2.703307 4.780495 0.152094 -0.272156 
1.335283 3.629113 2.703155 4.792879 0.172903 -0.272766 
1.335212 3.629026 2.703020 4.776800 0.153768 -0.269043 
1.335007 3.628880 2.703044 4.777110 0.205040 -0.283417 
1.335149 3.629078 2.702937 4.784998 0.156750 -0.261169 
1.335173 3.628967 2.702910 4.772045 0.150907 -0.268097 
1.335286 3.628962 2.702929 4.772499 0.151788 -0.273041 
1.335400 3.628885 2.703170 4.778946 0.205061 -0.294800 
1.335526 3.628816 2.703208 4.777504 0.179927 -0.285523 
1.335613 3.628929 2.703566 4.782826 0.157902 -0.309631 
1.335317 3.628920 2.703657 4.818429 0.117574 -0.264221 
1.335030 3.628880 2.703815 4.812991 0.155701 -0.257690 
1.335220 3.629143 2.703869 4.794794 0.137781 -0.284027 
1.335154 3.628957 2.704107 4.813638 0.109075 -0.253052 
1.335216 3.628760 2.704081 4.804241 0.124499 -0.239746 
1.335215 3.628903 2.704083 4.769620 0.214519 -0.289948 
1.335310 3.628909 2.704201 4.790528 0.157534 -0.254059 
1.335627 3.628798 2.704125 4.784655 0.152624 -0.240295 
1.335564 3.629000 2.703756 4.789830 0.133238 -0.286896 
1.335458 3.629118 2.703531 4.801455 0.139411 -0.281708 
1.335442 3.629195 2.703527 4.790861 0.149171 -0.268524 
1.335280 3.629130 2.703403 4.786836 0.147873 -0.269928 
1.335192 3.629022 2.703329 4.778907 0.151160 -0.279205 
1.335175 3.629021 2.703209 4.774189 0.149531 -0.282074 
1.335289 3.628962 2.703034 4.773992 0.145754 -0.274109 
1.335215 3.629138 2.702994 4.769648 0.189710 -0.309937 
1.335326 3.629043 2.703163 4.785804 0.146365 -0.283783 
1.335344 3.629040 2.703203 4.785274 0.156666 -0.279450 
1.335340 3.629135 2.703297 4.787007 0.148283 -0.273987 
1.335390 3.629175 2.703403 4.791822 0.150733 -0.275574 
1.335446 3.629117 2.703413 4.783853 0.146550 -0.271637 
1.335361 3.629147 2.703597 4.790886 0.157008 -0.279602 
1.335345 3.628997 2.703509 4.799063 0.137789 -0.273346 
1.335339 3.628810 2.703631 4.778238 0.151673 -0.257385 
1.335226 3.628802 2.703958 4.806407 0.130267 -0.251434 
1.335346 3.628714 2.703943 4.789136 0.146818 -0.230560 
1.335379 3.628890 2.703859 4.786142 0.174192 -0.265289 
1.335441 3.629136 2.703797 4.809666 0.149508 -0.269379 
1.335426 3.629143 2.703682 4.809341 0.146427 -0.277954 
1.335369 3.629278 2.703679 4.795641 0.148590 -0.294525 
1.335359 3.629055 2.703516 4.793652 0.154896 -0.269836 
1.335430 3.628974 2.703295 4.773338 0.145158 -0.260986 
1.335403 3.629017 2.703287 4.774700 0.159582 -0.258575 
1.335316 3.628913 2.703263 4.786304 0.160748 -0.276703 
1.335389 3.628864 2.703159 4.779415 0.153774 -0.271790 
1.335117 3.629147 2.703164 4.771073 0.124138 -0.298370 
1.335332 3.628800 2.703305 4.808019 0.114467 -0.240356 
1.335180 3.629051 2.703216 4.783399 0.158308 -0.281799 
1.335078 3.629018 2.703169 4.783154 0.147661 -0.280151 
1.334879 3.628990 2.703048 4.788338 0.154752 -0.268036 
1.334631 3.629058 2.702832 4.765708 0.166983 -0.293457 
1.334523 3.628982 2.703048 4.752205 0.174001 -0.311371 
1.334541 3.628942 2.702980 4.761091 0.171195 -0.299835 
1.334682 3.628889 2.703064 4.754167 0.176150 -0.306488 
1.334703 3.629036 2.702802 4.750655 0.164464 -0.306915 
1.335001 3.628864 2.702990 4.772064 0.139086 -0.269684 
1.334960 3.628851 2.703167 4.780944 0.146984 -0.269379 
1.334872 3.628801 2.703406 4.769043 0.136727 -0.272614 
1.334625 3.628755 2.703605 4.765215 0.129011 -0.266937 
1.334095 3.628906 2.704124 4.770920 0.167479 -0.275818 
1.333885 3.628821 2.704198 4.780993 0.175573 -0.263611 
1.333584 3.628780 2.704747 4.765619 0.191568 -0.265350 
1.333120 3.628835 2.704728 4.740693 0.149078 -0.276062 
1.333067 3.628764 2.705149 4.746480 0.159424 -0.271088 
1.333381 3.628404 2.706019 4.760122 0.100488 -0.234497 
1.333934 3.628321 2.706863 4.761447 0.122044 -0.226837 
1.334694 3.628415 2.707733 4.761027 0.170733 -0.222504 
1.335198 3.628482 2.708949 4.790993 0.119636 -0.239197 
1.335155 3.628504 2.709673 4.840094 0.059781 -0.237610 
1.334013 3.628173 2.710131 4.787856 0.120428 -0.204804 
1.332927 3.628122 2.710556 4.792494 0.077994 -0.176483 
1.332026 3.628053 2.711438 4.771629 0.145030 -0.203003 
1.331933 3.628226 2.712634 4.794107 0.227447 -0.134369 
1.331812 3.628398 2.713819 4.824211 0.225452 -0.173187 
1.332425 3.628387 2.714669 4.839098 0.213474 -0.162323 
1.333339 3.628445 2.715841 4.835983 0.190877 -0.141785 
1.333808 3.628594 2.716640 4.815457 0.186486 -0.149353 
1.334372 3.628579 2.717244 4.795292 0.169123 -0.163574 
1.334337 3.628726 2.717664 4.812592 0.207857 -0.177673 
1.334155 3.628596 2.717971 4.808223 0.220040 -0.167145 
1.333907 3.628433 2.717848 4.824051 0.198766 -0.150177 
1.333222 3.628628 2.717120 4.763142 0.272019 -0.194672 
1.332787 3.628660 2.716428 4.780529 0.250191 -0.189423 
1.332177 3.628757 2.715524 4.770122 0.337683 -0.242950 
1.331897 3.628631 2.714682 4.768329 0.325995 -0.256409 
1.331856 3.628125 2.713723 4.766099 0.296344 -0.188049 
1.331774 3.627740 2.713117 4.777775 0.243618 -0.140259 
1.331679 3.627632 2.712391 4.782934 0.269929 -0.165039 
1.331720 3.627398 2.711400 4.779243 0.211164 -0.113709 
1.331612 3.627254 2.710875 4.758063 0.216283 -0.129639 
1.331380 3.627164 2.710106 4.781189 0.196063 -0.118622 
1.331299 3.627042 2.709906 4.758476 0.194481 -0.139618 
1.331133 3.627182 2.709414 4.766785 0.205068 -0.142578 
1.331131 3.627180 2.709194 4.766833 0.204047 -0.140808 
1.331145 3.627171 2.709262 4.767748 0.203964 -0.143250 
1.331351 3.627012 2.709317 4.778244 0.185577 -0.128479 
1.331359 3.627033 2.709647 4.779526 0.187131 -0.131989 
1.331466 3.627078 2.710037 4.792247 0.183239 -0.126587 
1.331427 3.626973 2.710674 4.774180 0.196973 -0.151764 
1.331361 3.627067 2.711393 4.753739 0.222533 -0.152039 
1.331350 3.626986 2.712110 4.766008 0.189315 -0.125763 
1.331351 3.627418 2.712584 4.760409 0.288603 -0.194458 
1.331444 3.627367 2.713242 4.759680 0.234884 -0.165527 
1.331937 3.627365 2.713866 4.785888 0.191346 -0.105225 
1.331724 3.627311 2.714703 4.820941 0.196719 -0.099762 
1.332051 3.627604 2.715235 4.830962 0.161612 -0.072235 
1.331848 3.627896 2.715633 4.812092 0.248927 -0.155975 
1.331997 3.627915 2.716077 4.807140 0.252057 -0.157257 
1.332048 3.628052 2.716440 4.804002 0.271048 -0.160095 
1.331960 3.628121 2.716800 4.787679 0.293115 -0.170319 
1.331939 3.628182 2.717025 4.767080 0.270122 -0.189514 
1.331987 3.628113 2.716996 4.758093 0.284947 -0.168854 
1.332033 3.628278 2.716773 4.788099 0.278796 -0.171509 
1.332207 3.628203 2.716388 4.780782 0.270974 -0.176880 
1.332367 3.628220 2.715964 4.783888 0.243327 -0.183624 
1.332491 3.628251 2.715336 4.778379 0.186499 -0.194336 
1.332978 3.627748 2.714984 4.829006 0.161902 -0.128235 
1.333025 3.627866 2.714563 4.826484 0.193276 -0.160248 
1.333317 3.627801 2.714013 4.830457 0.196824 -0.161224 
1.333604 3.628213 2.713652 4.819911 0.216670 -0.193390 
1.334455 3.628159 2.713739 4.828046 0.170962 -0.172638 
1.335283 3.628348 2.713774 4.825055 0.163122 -0.190125 
1.335966 3.628277 2.714337 4.806048 0.211901 -0.250794 
1.336686 3.628494 2.714804 4.810747 0.250256 -0.246429 
1.337092 3.628509 2.715320 4.812000 0.236825 -0.231934 
